<?xml version="1.0" encoding="UTF-8"?>
<svg id="Layer_1" xmlns="http://www.w3.org/2000/svg" version="1.1" viewBox="0 0 543.88 699.28">
  <!-- Generator: Adobe Illustrator 30.0.0, SVG Export Plug-In . SVG Version: 2.1.1 Build 123)  -->
  <path fill="#0D0D0D" d="M6.74,660.85c7.02-159.58,13.14-327.38,18.73-486.98,1.42-40.33,4.12-121.96,5.39-162.32.09-2.71,2.36-4.84,5.07-4.75,2.6.09,4.66,2.19,4.75,4.75,1.85,58.76,4.8,144.44,6.83,202.91,4.75,131.63,9.98,274.19,15.64,405.82l1.77,40.58c.7,16.07-11.75,29.66-27.82,30.37-16.96.84-31.19-13.41-30.37-30.37Z"/>
  <path fill="#0D0D0D" d="M314.56,666.42c-2.31-2.74-3.53-6.23-3.49-9.82,1.98-178.8,2.15-376.42,8.24-554.04.39-12.36.84-24.72,1.33-37.08.09-2.35,1.86-4.4,4.21-4.6,2.69-.23,4.92,1.85,5.02,4.41.49,12.42.94,24.85,1.34,37.27,4.48,129.96,5.91,279.08,6.86,410.02l1.44,149.1c-.47,17.13-13.09,18.83-24.96,4.74Z"/>
  <path fill="#0D0D0D" d="M454.91,651.13c4.17,1.43,19.13,5.58,24.47,7.25,1.86.59,1.94-.93,2.38-2.91,15.63-75.5,30.93-151.11,52.84-225.08,1.1-3.63,2.43-6.85,3.34-9.95,2.29-7.8-2.1-16.02-9.85-18.46-127.93-40.3-273.09-36.7-402.8-4.19-9.32,3.27-9.6,12.77-6.62,21.06,23.02,77.64,36,158.34,52.92,237.06,7.51-1.54,20.65-5.49,25.8-7.02-4.83-43.93-22.15-205.22-23.39-216.38,96.71-36.62,209.86-37.64,306.86,1.56l-25.94,217.06Z"/>
  <path fill="#0D0D0D" d="M133.89,224.09c51.72-19.11,148.16-22.55,199.22-1.15l3.2,1.41c.53.24,1.06.46,1.58.72,1.38.72,3.26,1.65,4.64,2.4,1.43.89,4.52,2.61,5.89,3.69.94.67,1.88,1.34,2.79,2.02,3.82,2.96.09,8.26-4.67,6.59l-.3-.11c-15.37-5.71-32.43-7.42-49.44-8.24-17.05-.73-34.29-.34-51.42.97-25.59,2-50.8,5.64-75.42,11.7-7.84,1.93-15.56,4.22-23.11,6.87-20.92,7.03-33.4-18.68-12.97-26.87Z"/>
  <path fill="#0D0D0D" d="M28.8,639.12c121.17-28.14,377.55-59.78,481.75,14.68,9.03,6.62,17.29,14.46,23.92,23.44,1.69,2.3,1.5,5.62-.74,7.39-1.87,1.48-4.41,1.45-6.23.14-6.47-4.85-13.12-9.12-20.2-12.92-65.83-33.13-146.59-31.24-218.57-25.84-41.72,3.54-83.27,9.57-124.44,17.19-41.07,7.69-81.96,16.79-122.2,27.91-14.28,4.01-29.11-4.34-33.1-18.62-4.14-14.68,4.94-29.97,19.8-33.37Z"/>
  </svg>