<svg xmlns="http://www.w3.org/2000/svg" viewBox="0 0 472.0 96.0" width="472.0" height="96.0">
  
  <g transform="translate(16.00,16.00) scale(0.091523,0.091523)">
    <path fill="#0D0D0D" d="M6.74,660.85c7.02-159.58,13.14-327.38,18.73-486.98,1.42-40.33,4.12-121.96,5.39-162.32.09-2.71,2.36-4.84,5.07-4.75,2.6.09,4.66,2.19,4.75,4.75,1.85,58.76,4.8,144.44,6.83,202.91,4.75,131.63,9.98,274.19,15.64,405.82l1.77,40.58c.7,16.07-11.75,29.66-27.82,30.37-16.96.84-31.19-13.41-30.37-30.37Z"/>
    <path fill="#0D0D0D" d="M304.73,657.04c-2.27-2.7-3.48-6.14-3.44-9.67,1.95-176.03,2.12-370.59,8.11-545.46.39-12.17.83-24.34,1.31-36.51.09-2.32,1.83-4.34,4.14-4.53,2.65-.23,4.84,1.82,4.94,4.35.48,12.23.92,24.46,1.32,36.7,4.41,127.95,5.82,274.76,6.76,403.67l1.42,146.79c-.46,16.87-12.89,18.54-24.57,4.66Z"/>
    <path fill="#0D0D0D" d="M455.25,646.78c4.22,1.29,19.3,4.95,24.7,6.45,1.88.53,1.91-.99,2.28-2.99,13.14-75.97,25.96-152.04,45.42-226.69.98-3.66,2.21-6.93,3.01-10.05,2.03-7.87-2.62-15.95-10.46-18.13-129.18-36.08-274.14-27.72-402.73,9.03-9.21,3.58-9.17,13.08-5.92,21.27,25.55,76.84,41.17,157.07,60.67,235.2,7.45-1.78,20.46-6.16,25.56-7.86-6.27-43.75-28.87-204.38-30.48-215.49,95.46-39.77,208.51-44.5,306.74-8.51l-18.8,217.79Z"/>
    <path fill="#0D0D0D" d="M128.65,226.5c49.61-21,142.11-24.78,191.09-1.26l3.07,1.55c.51.27,1.02.51,1.52.8,1.33.79,3.13,1.82,4.46,2.64,1.37.98,4.34,2.87,5.65,4.05.91.74,1.8,1.48,2.67,2.22,3.66,3.26.09,9.08-4.48,7.24l-.28-.12c-14.74-6.27-31.11-8.15-47.42-9.06-16.35-.8-32.89-.37-49.32,1.07-24.55,2.2-48.73,6.2-72.34,12.86-7.52,2.12-14.92,4.64-22.17,7.55-20.07,7.73-32.04-20.53-12.44-29.52Z"/>
    <path fill="#0D0D0D" d="M28.8,639.12c121.17-28.14,377.55-59.78,481.75,14.68,9.03,6.62,17.29,14.46,23.92,23.44,1.69,2.3,1.5,5.62-.74,7.39-1.87,1.48-4.41,1.45-6.23.14-6.47-4.85-13.12-9.12-20.2-12.92-65.83-33.13-146.59-31.24-218.57-25.84-41.72,3.54-83.27,9.57-124.44,17.19-41.07,7.69-81.96,16.79-122.2,27.91-14.28,4.01-29.11-4.34-33.1-18.62-4.14-14.68,4.94-29.97,19.8-33.37Z"/>
  </g>
  <rect x="89.78" y="22.00" width="1.5" height="52" fill="#0D0D0D"/>
  <path transform="translate(115.28,65.94) scale(0.052000,-0.052000)" d="M181 690V146Q181 114 197.0 98.5Q213 83 246 83H493L498 6Q431 1 362.0 0.0Q293 -1 224 -1Q148 -1 115.0 36.5Q82 74 82 131V690Z" fill="#0D0D0D"/>
  <path transform="translate(153.21,65.94) scale(0.052000,-0.052000)" d="M214 691H316Q368 691 418.5 689.5Q469 688 515 685L511 608H236Q206 608 192.0 593.0Q178 578 178 545V402H472V325H178V145Q178 112 192.0 96.5Q206 81 236 81H511L515 5Q469 2 418.5 1.0Q368 0 316.0 -0.5Q264 -1 214 -1Q152 -1 115.5 32.5Q79 66 78 122V568Q79 625 115.5 658.0Q152 691 214 691Z" fill="#0D0D0D"/>
  <path transform="translate(193.49,65.94) scale(0.052000,-0.052000)" d="M923 690 788 29Q785 17 775.0 8.5Q765 0 750 0H642Q627 0 616.5 8.5Q606 17 604 30L502 536Q498 556 494.0 576.5Q490 597 486 616H466Q462 597 458.5 576.0Q455 555 451 536L350 30Q347 17 336.5 8.5Q326 0 312 0H203Q188 0 177.5 8.5Q167 17 165 29L30 690H134L235 163Q239 143 242.0 121.0Q245 99 249 75H271Q275 98 279.0 120.0Q283 142 287 163L388 658Q390 672 400.5 681.0Q411 690 426 690H527Q542 690 552.0 681.0Q562 672 565 658L666 163Q671 140 674.5 118.5Q678 97 680 75H705Q707 97 710.0 119.0Q713 141 717 162L819 690Z" fill="#0D0D0D"/>
  <path transform="translate(254.05,65.94) scale(0.052000,-0.052000)" d="M184 690V0H84V690Z" fill="#0D0D0D"/>
  <path transform="translate(278.98,65.94) scale(0.052000,-0.052000)" d="M282 702Q332 701 385.5 697.0Q439 693 492 681L485 610Q442 612 388.5 613.0Q335 614 285 614Q250 614 225.0 612.0Q200 610 184.0 601.0Q168 592 160.5 572.0Q153 552 153 517Q153 464 173.0 442.5Q193 421 238 410L377 373Q457 353 487.0 305.5Q517 258 517 178Q517 118 503.5 81.0Q490 44 461.5 24.0Q433 4 388.0 -4.0Q343 -12 281 -12Q247 -12 191.0 -9.0Q135 -6 62 8L69 81Q128 79 165.5 77.5Q203 76 230 76H284Q334 76 363.0 83.5Q392 91 404.0 113.5Q416 136 416 179Q416 216 407.5 237.0Q399 258 380.5 268.5Q362 279 333 286L190 325Q115 346 84.0 393.0Q53 440 53 518Q53 578 66.5 615.0Q80 652 108.0 670.5Q136 689 179.0 695.5Q222 702 282 702Z" fill="#0D0D0D"/>
  <path transform="translate(341.96,65.94) scale(0.052000,-0.052000)" d="M181 690V146Q181 114 197.0 98.5Q213 83 246 83H493L498 6Q431 1 362.0 0.0Q293 -1 224 -1Q148 -1 115.0 36.5Q82 74 82 131V690Z" fill="#0D0D0D"/>
  <path transform="translate(379.89,65.94) scale(0.052000,-0.052000)" d="M365 690Q378 690 388.0 682.5Q398 675 402 663L620 0H516L451 210H176L111 0H8L226 663Q230 675 240.0 682.5Q250 690 263 690ZM425 293 344 555 336 585Q332 600 328 613H300Q296 600 292.0 585.0Q288 570 283 555L202 293Z" fill="#0D0D0D"/>
  <path transform="translate(423.55,65.94) scale(0.052000,-0.052000)" d="M315 698Q401 698 451.5 682.5Q502 667 524.5 628.0Q547 589 547 518Q547 444 519.5 405.0Q492 366 430 360V356Q507 349 538.0 302.0Q569 255 569 172Q569 101 546.5 62.0Q524 23 475.0 7.5Q426 -8 346 -8Q285 -8 241.5 -7.5Q198 -7 161.0 -5.0Q124 -3 84 0V690Q120 694 152.5 695.5Q185 697 223.5 697.5Q262 698 315 698ZM182 75Q183 75 183 75Q246 74 330 74Q382 74 412.0 83.0Q442 92 455.0 117.0Q468 142 468 190Q468 242 454.5 269.5Q441 297 410.0 308.5Q379 320 324 321H182ZM182 394H323Q371 395 399.0 404.0Q427 413 439.0 437.5Q451 462 451 506Q451 551 438.0 575.0Q425 599 394.0 607.5Q363 616 310 616H220Q200 616 182 616Z" fill="#0D0D0D"/>
</svg>